<svg width="35" height="35" viewBox="0 0 35 35" fill="none" xmlns="http://www.w3.org/2000/svg">
<path d="M3.64584 17.4999C3.64584 10.9695 3.64584 7.70284 5.67439 5.67429C7.70293 3.64575 10.9681 3.64575 17.5 3.64575C24.0304 3.64575 27.2971 3.64575 29.3256 5.67429C31.3542 7.70284 31.3542 10.968 31.3542 17.4999C31.3542 24.0303 31.3542 27.297 29.3256 29.3255C27.2971 31.3541 24.0319 31.3541 17.5 31.3541C10.9696 31.3541 7.70293 31.3541 5.67439 29.3255C3.64584 27.297 3.64584 24.0318 3.64584 17.4999Z" stroke="#FF7B32" stroke-width="1.5" stroke-linecap="round" stroke-linejoin="round"/>
<path d="M25.5325 9.479H25.5179M24.0625 17.4998C24.0625 19.2403 23.3711 20.9095 22.1404 22.1402C20.9097 23.3709 19.2405 24.0623 17.5 24.0623C15.7595 24.0623 14.0903 23.3709 12.8596 22.1402C11.6289 20.9095 10.9375 19.2403 10.9375 17.4998C10.9375 15.7594 11.6289 14.0902 12.8596 12.8594C14.0903 11.6287 15.7595 10.9373 17.5 10.9373C19.2405 10.9373 20.9097 11.6287 22.1404 12.8594C23.3711 14.0902 24.0625 15.7594 24.0625 17.4998Z" stroke="#FF7B32" stroke-width="1.5" stroke-linecap="round" stroke-linejoin="round"/>
</svg>
