<svg width="27" height="27" viewBox="0 0 27 27" fill="none" xmlns="http://www.w3.org/2000/svg">
<path d="M7.875 15.75L10.1194 13.0556C10.836 12.1972 11.1938 11.7675 11.6246 11.7675C12.0555 11.7675 12.4144 12.1972 13.1299 13.0556L13.8701 13.9444C14.5856 14.8028 14.9434 15.2325 15.3754 15.2325C15.8062 15.2325 16.164 14.8028 16.8806 13.9444L19.125 11.25" stroke="#FF7B32" stroke-width="1.5" stroke-linecap="round" stroke-linejoin="round"/>
<path d="M13.5 24.75C19.7134 24.75 24.75 19.7134 24.75 13.5C24.75 7.28663 19.7134 2.25 13.5 2.25C7.28663 2.25 2.25 7.28663 2.25 13.5C2.25 15.0514 2.565 16.5296 3.132 17.874C3.44587 18.6165 3.60225 18.9878 3.6225 19.269C3.64163 19.5503 3.55838 19.8585 3.393 20.4761L2.25 24.75L6.52387 23.607C7.1415 23.4416 7.44975 23.3595 7.731 23.3775C8.01225 23.3978 8.3835 23.5541 9.126 23.868C10.5105 24.4511 11.9977 24.751 13.5 24.75Z" stroke="#FF7B32" stroke-width="1.5" stroke-linecap="round" stroke-linejoin="round"/>
</svg>
