<svg width="40" height="40" viewBox="0 0 40 40" fill="none" xmlns="http://www.w3.org/2000/svg">
<path d="M22.2564 20.0001L16.7372 23.3334V16.6667L22.2564 20.0001Z" fill="#FF7B32" stroke="#FF7B32" stroke-width="1.5" stroke-linecap="round" stroke-linejoin="round"/>
<path d="M3.33334 21.1801V18.8201C3.33334 13.9951 3.33334 11.5817 4.76046 10.0301C6.18915 8.47675 8.43784 8.41008 12.9337 8.27508C15.0625 8.21175 17.2387 8.16675 19.1026 8.16675C20.9665 8.16675 23.1411 8.21175 25.2715 8.27508C29.7673 8.41008 32.016 8.47675 33.4431 10.0301C34.8702 11.5834 34.8718 13.9967 34.8718 18.8201V21.1784C34.8718 26.0051 34.8718 28.4168 33.4447 29.9701C32.016 31.5218 29.7689 31.5901 25.2715 31.7234C23.1427 31.7884 20.9665 31.8334 19.1026 31.8334C17.2387 31.8334 15.0641 31.7884 12.9337 31.7234C8.43784 31.5901 6.18915 31.5234 4.76046 29.9701C3.33177 28.4168 3.33334 26.0034 3.33334 21.1801Z" stroke="#FF7B32" stroke-width="1.5"/>
</svg>
